<svg width="850" height="783" viewBox="0 0 850 783" fill="none" xmlns="http://www.w3.org/2000/svg">
    <path d="M211.254 415.843H69.1924V554.458H211.254V415.843Z" fill="#DDD92A"/>
    <path d="M282.284 277.229H140.223V415.843H282.284V277.229Z" fill="#DDD92A"/>
    <path d="M353.315 138.614H211.254V277.229H353.315V138.614Z" fill="#DDD92A"/>
    <path d="M424.345 0H282.284V138.614H424.345V0Z" fill="#DDD92A"/>
    <path d="M532.075 138.614H390.014V0H532.075V138.614Z" fill="#DDD92A"/>
    <path d="M603.106 277.229H461.045V138.614H603.106V277.229Z" fill="#DDD92A"/>
    <path d="M674.136 415.843H532.075V277.229H674.136V415.843Z" fill="#DDD92A"/>
    <path d="M745.167 554.458H603.106V415.843H745.167V554.458Z" fill="#DDD92A"/>
    <path d="M426 610H385V783H426V610Z" fill="#DDD92A"/>
    <path d="M542 611H501V783H542V611Z" fill="#DDD92A"/>
    <path d="M600 611H559V654H600V611Z" fill="#DDD92A"/>
    <path d="M99 652H58V752H99V652Z" fill="#DDD92A"/>
    <path d="M600 654H559V696H600V654Z" fill="#DDD92A"/>
    <path d="M600 696H559V782H600V696Z" fill="#DDD92A"/>
    <path d="M626 739H585V782H626V739Z" fill="#DDD92A"/>
    <path d="M668 739H626V782H668V739Z" fill="#DDD92A"/>
    <path d="M696 696H655V782H696V696Z" fill="#DDD92A"/>
    <path d="M850 739H754V782H850V739Z" fill="#DDD92A"/>
    <path d="M696 654H655V696H696V654Z" fill="#DDD92A"/>
    <path d="M696 611H655V654H696V611Z" fill="#DDD92A"/>
    <path d="M754 610H713V782H754V610Z" fill="#DDD92A"/>
    <path d="M221 652H180V783H221V652Z" fill="#DDD92A"/>
    <path d="M273 610H0V652H273V610Z" fill="#DDD92A"/>
    <path d="M542 610H385V652H542V610Z" fill="#DDD92A"/>
    <path d="M542 698H385V740H542V698Z" fill="#DDD92A"/>
    <path d="M149 740H4V783H149V740Z" fill="#DDD92A"/>
    <path d="M358 674H286V717H358V674Z" fill="#DDD92A"/>
</svg>
