<svg xmlns="http://www.w3.org/2000/svg" viewBox="0 0 32 32" width="256px" height="256px" baseProfile="basic" fill="#DDD92A">
    <rect width="12" height="2" x="10" y="4" fill="#1d1d1b"/>
    <rect width="12" height="2" x="21" y="15" fill="#1d1d1b" transform="rotate(90 27 16)"/>
    <rect width="2" height="2" x="22" y="6" fill="#1d1d1b" transform="rotate(-180 23 7)"/>
    <rect width="2" height="2" x="24" y="8" fill="#1d1d1b" transform="rotate(-180 25 9)"/>
    <rect width="2" height="2" x="22" y="24" fill="#1d1d1b" transform="rotate(-180 23 25)"/>
    <rect width="2" height="2" x="24" y="22" fill="#1d1d1b" transform="rotate(-180 25 23)"/>
    <rect width="12" height="2" x="10" y="26" fill="#1d1d1b" transform="rotate(-180 16 27)"/>
    <rect width="12" height="2" x="-1" y="15" fill="#1d1d1b" transform="rotate(-90 5 16)"/>
    <rect width="2" height="2" x="8" y="24" fill="#1d1d1b"/>
    <rect width="2" height="2" x="6" y="22" fill="#1d1d1b"/>
    <rect width="2" height="2" x="8" y="6" fill="#1d1d1b" transform="rotate(-90 9 7)"/>
    <rect width="2" height="2" x="6" y="8" fill="#1d1d1b" transform="rotate(-90 7 9)"/>
    <rect width="3" height="2" x="8" y="15" fill="#1d1d1b"/>
    <rect width="2" height="2" x="11" y="13" fill="#1d1d1b"/>
    <rect width="4" height="2" x="13" y="11" fill="#1d1d1b"/>
    <polygon fill="#1d1d1b" points="17,9 17,11 19,11 19,19 15,19 15,21 19,21 19,23 21,23 21,9"/>
    <polygon fill="#1d1d1b" points="13,15 13,17 11,17 11,21 13,21 13,19 15,19 15,15"/>
</svg>